# xmcd
# 
# Track frame offsets:
#     150
#     17477
#     36602
#     62492
#     80480
#     101487
#     121675
#     136592
#     162025
#     185230
#     205057
#     219612
#     226725
#     245627
#     272152
# 
# Disc length: 3718
# 
# Revision: 1
# Processed by: cddbd v1.5.2PL0 Copyright (c) Steve Scherf et al.
# Submitted via: fre:ac v1.0.17
# 
DISCID=c90e840f
DTITLE=山下達郎 - Best Pack II 1979-1982
DYEAR=1987
DGENRE=Pop
TTITLE0=MORNING GLORY
TTITLE1=SPARKLE
TTITLE2=FUTARI
TTITLE3=愛を描いて -Let's Kiss the Sun-
TTITLE4=夏への扉
TTITLE5=LOVELAND， ISLAND
TTITLE6=あまく危険な香り
TTITLE7=FUNKY FLUSHIN'
TTITLE8=RAINY WALK
TTITLE9=TOUCH ME LIGHTLY
TTITLE10=YOUR EYES
TTITLE11=おやすみ
TTITLE12=MY SUGAR BABE
TTITLE13=RIDE ON TIME
TTITLE14=夜の翼 -Nightwing-
EXTD=YEAR: 1987
EXTT0=
EXTT1=
EXTT2=
EXTT3=
EXTT4=
EXTT5=
EXTT6=
EXTT7=
EXTT8=
EXTT9=
EXTT10=
EXTT11=
EXTT12=
EXTT13=
EXTT14=
PLAYORDER=
